<?xml version="1.0" encoding="utf-8"?>
<!-- Generator: Adobe Illustrator 23.1.1, SVG Export Plug-In . SVG Version: 6.00 Build 0)  -->
<svg version="1.1" xmlns="http://www.w3.org/2000/svg" xmlns:xlink="http://www.w3.org/1999/xlink" x="0px" y="0px"
	 viewBox="0 0 3840 2160" style="enable-background:new 0 0 3840 2160;" xml:space="preserve">
<style type="text/css">
	.st0{fill:transparent;}
	.st1{opacity:0.35;}
	.st2{fill:#E29276;}
	.st3{fill:#BA785D;}
	.st4{fill:#F1F1F1;}
	.st5{fill:#CBCBCB;}
	.st6{fill:#E5E5E5;}
	.st7{fill:#FCEBA2;}
	.st8{opacity:0.5;fill:#FCEBA2;}
	.st9{fill:#828E93;}
	.st10{fill:#8E5C4A;}
</style>
<g id="Back">
	<rect class="st0" width="3840" height="2160"/>
</g>
<g id="Land">
	<polygon class="st0" points="560,1200 1805,1200 2585,1980 80,1980 80,1200 	"/>
	<g class="st1">
		<ellipse class="st2" cx="1672.5" cy="1912.5" rx="7.5" ry="2.5"/>
		<ellipse class="st2" cx="1575" cy="1873.33" rx="10" ry="3.33"/>
		<ellipse class="st3" cx="1552.5" cy="1912.5" rx="7.5" ry="2.5"/>
		<ellipse class="st4" cx="1612.5" cy="1882.5" rx="7.5" ry="2.5"/>
		<ellipse class="st4" cx="1582.5" cy="1827.5" rx="7.5" ry="2.5"/>
		<ellipse class="st2" cx="1692.5" cy="1902.5" rx="7.5" ry="2.5"/>
		<ellipse class="st2" cx="1580" cy="1790" rx="7.5" ry="2.5"/>
		<ellipse class="st5" cx="1662.5" cy="1932.5" rx="7.5" ry="2.5"/>
		<ellipse class="st6" cx="1710" cy="1875" rx="7.5" ry="2.5"/>
		<ellipse class="st6" cx="1587.5" cy="1782.5" rx="7.5" ry="2.5"/>
		<ellipse class="st6" cx="1677.5" cy="1842.5" rx="7.5" ry="2.5"/>
		<ellipse class="st6" cx="1572.5" cy="1842.5" rx="7.5" ry="2.5"/>
		<ellipse class="st6" cx="1512.5" cy="1782.5" rx="7.5" ry="2.5"/>
		<ellipse class="st3" cx="1507.5" cy="1842.5" rx="7.5" ry="2.5"/>
		<ellipse class="st2" cx="1735" cy="1946.67" rx="10" ry="3.33"/>
		<ellipse class="st6" cx="1671.67" cy="1890" rx="10" ry="3.33"/>
		<ellipse class="st6" cx="1617.5" cy="1835.83" rx="10" ry="3.33"/>
		<ellipse class="st6" cx="1555" cy="1776.67" rx="10" ry="3.33"/>
		<ellipse class="st7" cx="1610" cy="1858.33" rx="10" ry="3.33"/>
		<ellipse class="st7" cx="1710" cy="1831.67" rx="10" ry="3.33"/>
	</g>
	<g class="st1">
		<ellipse class="st2" cx="582.5" cy="1572.5" rx="7.5" ry="2.5"/>
		<ellipse class="st2" cx="485" cy="1533.33" rx="10" ry="3.33"/>
		<ellipse class="st3" cx="462.5" cy="1572.5" rx="7.5" ry="2.5"/>
		<ellipse class="st4" cx="522.5" cy="1542.5" rx="7.5" ry="2.5"/>
		<ellipse class="st4" cx="492.5" cy="1487.5" rx="7.5" ry="2.5"/>
		<ellipse class="st2" cx="602.5" cy="1562.5" rx="7.5" ry="2.5"/>
		<ellipse class="st2" cx="490" cy="1450" rx="7.5" ry="2.5"/>
		<ellipse class="st5" cx="572.5" cy="1592.5" rx="7.5" ry="2.5"/>
		<ellipse class="st6" cx="620" cy="1535" rx="7.5" ry="2.5"/>
		<ellipse class="st6" cx="497.5" cy="1442.5" rx="7.5" ry="2.5"/>
		<ellipse class="st6" cx="587.5" cy="1502.5" rx="7.5" ry="2.5"/>
		<ellipse class="st6" cx="482.5" cy="1502.5" rx="7.5" ry="2.5"/>
		<ellipse class="st6" cx="422.5" cy="1442.5" rx="7.5" ry="2.5"/>
		<ellipse class="st3" cx="417.5" cy="1502.5" rx="7.5" ry="2.5"/>
		<ellipse class="st2" cx="645" cy="1606.67" rx="10" ry="3.33"/>
		<ellipse class="st6" cx="581.67" cy="1550" rx="10" ry="3.33"/>
		<ellipse class="st6" cx="527.5" cy="1495.83" rx="10" ry="3.33"/>
		<ellipse class="st6" cx="465" cy="1436.67" rx="10" ry="3.33"/>
		<ellipse class="st7" cx="520" cy="1518.33" rx="10" ry="3.33"/>
		<ellipse class="st7" cx="620" cy="1491.67" rx="10" ry="3.33"/>
	</g>
	<g class="st1">
		<ellipse class="st2" cx="1127.5" cy="1722.5" rx="7.5" ry="2.5"/>
		<ellipse class="st2" cx="1030" cy="1683.33" rx="10" ry="3.33"/>
		<ellipse class="st3" cx="1007.5" cy="1722.5" rx="7.5" ry="2.5"/>
		<ellipse class="st4" cx="1067.5" cy="1692.5" rx="7.5" ry="2.5"/>
		<ellipse class="st4" cx="1037.5" cy="1637.5" rx="7.5" ry="2.5"/>
		<ellipse class="st2" cx="1147.5" cy="1712.5" rx="7.5" ry="2.5"/>
		<ellipse class="st2" cx="1035" cy="1600" rx="7.5" ry="2.5"/>
		<ellipse class="st5" cx="1117.5" cy="1742.5" rx="7.5" ry="2.5"/>
		<ellipse class="st6" cx="1165" cy="1685" rx="7.5" ry="2.5"/>
		<ellipse class="st6" cx="1042.5" cy="1592.5" rx="7.5" ry="2.5"/>
		<ellipse class="st6" cx="1132.5" cy="1652.5" rx="7.5" ry="2.5"/>
		<ellipse class="st6" cx="1027.5" cy="1652.5" rx="7.5" ry="2.5"/>
		<ellipse class="st6" cx="967.5" cy="1592.5" rx="7.5" ry="2.5"/>
		<ellipse class="st3" cx="962.5" cy="1652.5" rx="7.5" ry="2.5"/>
		<ellipse class="st2" cx="1190" cy="1756.67" rx="10" ry="3.33"/>
		<ellipse class="st6" cx="1126.67" cy="1700" rx="10" ry="3.33"/>
		<ellipse class="st6" cx="1072.5" cy="1645.83" rx="10" ry="3.33"/>
		<ellipse class="st6" cx="1010" cy="1586.67" rx="10" ry="3.33"/>
		<ellipse class="st7" cx="1065" cy="1668.33" rx="10" ry="3.33"/>
		<ellipse class="st7" cx="1165" cy="1641.67" rx="10" ry="3.33"/>
	</g>
	<g class="st1">
		<ellipse class="st2" cx="1897.5" cy="1899.17" rx="7.5" ry="2.5"/>
		<ellipse class="st2" cx="1800" cy="1860" rx="10" ry="3.33"/>
		<ellipse class="st3" cx="1777.5" cy="1899.17" rx="7.5" ry="2.5"/>
		<ellipse class="st4" cx="1837.5" cy="1869.17" rx="7.5" ry="2.5"/>
		<ellipse class="st4" cx="1807.5" cy="1814.17" rx="7.5" ry="2.5"/>
		<ellipse class="st2" cx="1917.5" cy="1889.17" rx="7.5" ry="2.5"/>
		<ellipse class="st2" cx="1805" cy="1776.67" rx="7.5" ry="2.5"/>
		<ellipse class="st5" cx="1887.5" cy="1919.17" rx="7.5" ry="2.5"/>
		<ellipse class="st6" cx="1935" cy="1861.67" rx="7.5" ry="2.5"/>
		<ellipse class="st6" cx="1812.5" cy="1769.17" rx="7.5" ry="2.5"/>
		<ellipse class="st6" cx="1902.5" cy="1829.17" rx="7.5" ry="2.5"/>
		<ellipse class="st6" cx="1797.5" cy="1829.17" rx="7.5" ry="2.5"/>
		<ellipse class="st6" cx="1737.5" cy="1769.17" rx="7.5" ry="2.5"/>
		<ellipse class="st3" cx="1732.5" cy="1829.17" rx="7.5" ry="2.5"/>
		<ellipse class="st2" cx="1960" cy="1933.33" rx="10" ry="3.33"/>
		<ellipse class="st6" cx="1896.67" cy="1876.67" rx="10" ry="3.33"/>
		<ellipse class="st6" cx="1842.5" cy="1822.5" rx="10" ry="3.33"/>
		<ellipse class="st6" cx="1780" cy="1763.33" rx="10" ry="3.33"/>
		<ellipse class="st7" cx="1835" cy="1845" rx="10" ry="3.33"/>
		<ellipse class="st7" cx="1935" cy="1818.33" rx="10" ry="3.33"/>
	</g>
	<polygon class="st5" points="980,1320 970,1320 1340,1690 1400,1690 1420,1710 2110,1710 2100,1700 2100,1690 2160,1690 2150,1680 
		2100,1680 2085,1680 2085,1700 1420,1700 1400,1680 1340,1680 	"/>
	<g class="st1">
		<ellipse class="st2" cx="1437.5" cy="1572.5" rx="7.5" ry="2.5"/>
		<ellipse class="st2" cx="1340" cy="1533.33" rx="10" ry="3.33"/>
		<ellipse class="st3" cx="1317.5" cy="1572.5" rx="7.5" ry="2.5"/>
		<ellipse class="st4" cx="1377.5" cy="1542.5" rx="7.5" ry="2.5"/>
		<ellipse class="st4" cx="1347.5" cy="1487.5" rx="7.5" ry="2.5"/>
		<ellipse class="st2" cx="1457.5" cy="1562.5" rx="7.5" ry="2.5"/>
		<ellipse class="st2" cx="1345" cy="1450" rx="7.5" ry="2.5"/>
		<ellipse class="st5" cx="1427.5" cy="1592.5" rx="7.5" ry="2.5"/>
		<ellipse class="st6" cx="1475" cy="1535" rx="7.5" ry="2.5"/>
		<ellipse class="st6" cx="1352.5" cy="1442.5" rx="7.5" ry="2.5"/>
		<ellipse class="st6" cx="1442.5" cy="1502.5" rx="7.5" ry="2.5"/>
		<ellipse class="st6" cx="1337.5" cy="1502.5" rx="7.5" ry="2.5"/>
		<ellipse class="st6" cx="1277.5" cy="1442.5" rx="7.5" ry="2.5"/>
		<ellipse class="st3" cx="1272.5" cy="1502.5" rx="7.5" ry="2.5"/>
		<ellipse class="st2" cx="1500" cy="1606.67" rx="10" ry="3.33"/>
		<ellipse class="st6" cx="1436.67" cy="1550" rx="10" ry="3.33"/>
		<ellipse class="st6" cx="1382.5" cy="1495.83" rx="10" ry="3.33"/>
		<ellipse class="st6" cx="1320" cy="1436.67" rx="10" ry="3.33"/>
		<ellipse class="st7" cx="1375" cy="1518.33" rx="10" ry="3.33"/>
		<ellipse class="st7" cx="1475" cy="1491.67" rx="10" ry="3.33"/>
	</g>
	<g class="st1">
		<ellipse class="st2" cx="1437.5" cy="1904.17" rx="7.5" ry="2.5"/>
		<ellipse class="st2" cx="1340" cy="1865" rx="10" ry="3.33"/>
		<ellipse class="st3" cx="1317.5" cy="1904.17" rx="7.5" ry="2.5"/>
		<ellipse class="st4" cx="1377.5" cy="1874.17" rx="7.5" ry="2.5"/>
		<ellipse class="st4" cx="1347.5" cy="1819.17" rx="7.5" ry="2.5"/>
		<ellipse class="st2" cx="1457.5" cy="1894.17" rx="7.5" ry="2.5"/>
		<ellipse class="st2" cx="1345" cy="1781.67" rx="7.5" ry="2.5"/>
		<ellipse class="st5" cx="1427.5" cy="1924.17" rx="7.5" ry="2.5"/>
		<ellipse class="st6" cx="1475" cy="1866.67" rx="7.5" ry="2.5"/>
		<ellipse class="st6" cx="1352.5" cy="1774.17" rx="7.5" ry="2.5"/>
		<ellipse class="st6" cx="1442.5" cy="1834.17" rx="7.5" ry="2.5"/>
		<ellipse class="st6" cx="1337.5" cy="1834.17" rx="7.5" ry="2.5"/>
		<ellipse class="st6" cx="1277.5" cy="1774.17" rx="7.5" ry="2.5"/>
		<ellipse class="st3" cx="1272.5" cy="1834.17" rx="7.5" ry="2.5"/>
		<ellipse class="st2" cx="1500" cy="1938.33" rx="10" ry="3.33"/>
		<ellipse class="st6" cx="1436.67" cy="1881.67" rx="10" ry="3.33"/>
		<ellipse class="st6" cx="1382.5" cy="1827.5" rx="10" ry="3.33"/>
		<ellipse class="st6" cx="1320" cy="1768.33" rx="10" ry="3.33"/>
		<ellipse class="st7" cx="1375" cy="1850" rx="10" ry="3.33"/>
		<ellipse class="st7" cx="1475" cy="1823.33" rx="10" ry="3.33"/>
	</g>
	<g class="st1">
		<ellipse class="st2" cx="1132.5" cy="1432.5" rx="7.5" ry="2.5"/>
		<ellipse class="st2" cx="1035" cy="1393.33" rx="10" ry="3.33"/>
		<ellipse class="st3" cx="1012.5" cy="1432.5" rx="7.5" ry="2.5"/>
		<ellipse class="st4" cx="1072.5" cy="1402.5" rx="7.5" ry="2.5"/>
		<ellipse class="st4" cx="1042.5" cy="1347.5" rx="7.5" ry="2.5"/>
		<ellipse class="st2" cx="1152.5" cy="1422.5" rx="7.5" ry="2.5"/>
		<ellipse class="st2" cx="1040" cy="1310" rx="7.5" ry="2.5"/>
		<ellipse class="st5" cx="1122.5" cy="1452.5" rx="7.5" ry="2.5"/>
		<ellipse class="st6" cx="1170" cy="1395" rx="7.5" ry="2.5"/>
		<ellipse class="st6" cx="1047.5" cy="1302.5" rx="7.5" ry="2.5"/>
		<ellipse class="st6" cx="1137.5" cy="1362.5" rx="7.5" ry="2.5"/>
		<ellipse class="st6" cx="1032.5" cy="1362.5" rx="7.5" ry="2.5"/>
		<ellipse class="st6" cx="972.5" cy="1302.5" rx="7.5" ry="2.5"/>
		<ellipse class="st3" cx="967.5" cy="1362.5" rx="7.5" ry="2.5"/>
		<ellipse class="st2" cx="1195" cy="1466.67" rx="10" ry="3.33"/>
		<ellipse class="st6" cx="1131.67" cy="1410" rx="10" ry="3.33"/>
		<ellipse class="st6" cx="1077.5" cy="1355.83" rx="10" ry="3.33"/>
		<ellipse class="st6" cx="1015" cy="1296.67" rx="10" ry="3.33"/>
		<ellipse class="st7" cx="1070" cy="1378.33" rx="10" ry="3.33"/>
		<ellipse class="st7" cx="1170" cy="1351.67" rx="10" ry="3.33"/>
	</g>
	<polygon class="st8" points="560,1200 1805,1200 2585,1980 80,1980 80,1200 	"/>
	<g class="st1">
		<ellipse class="st2" cx="1252.5" cy="1639.17" rx="7.5" ry="2.5"/>
		<ellipse class="st2" cx="1155" cy="1600" rx="10" ry="3.33"/>
		<ellipse class="st3" cx="1132.5" cy="1639.17" rx="7.5" ry="2.5"/>
		<ellipse class="st4" cx="1192.5" cy="1609.17" rx="7.5" ry="2.5"/>
		<ellipse class="st4" cx="1162.5" cy="1554.17" rx="7.5" ry="2.5"/>
		<ellipse class="st2" cx="1272.5" cy="1629.17" rx="7.5" ry="2.5"/>
		<ellipse class="st2" cx="1160" cy="1516.67" rx="7.5" ry="2.5"/>
		<ellipse class="st5" cx="1242.5" cy="1659.17" rx="7.5" ry="2.5"/>
		<ellipse class="st6" cx="1290" cy="1601.67" rx="7.5" ry="2.5"/>
		<ellipse class="st6" cx="1167.5" cy="1509.17" rx="7.5" ry="2.5"/>
		<ellipse class="st6" cx="1257.5" cy="1569.17" rx="7.5" ry="2.5"/>
		<ellipse class="st6" cx="1152.5" cy="1569.17" rx="7.5" ry="2.5"/>
		<ellipse class="st6" cx="1092.5" cy="1509.17" rx="7.5" ry="2.5"/>
		<ellipse class="st3" cx="1087.5" cy="1569.17" rx="7.5" ry="2.5"/>
		<ellipse class="st2" cx="1315" cy="1673.33" rx="10" ry="3.33"/>
		<ellipse class="st6" cx="1251.67" cy="1616.67" rx="10" ry="3.33"/>
		<ellipse class="st6" cx="1197.5" cy="1562.5" rx="10" ry="3.33"/>
		<ellipse class="st6" cx="1135" cy="1503.33" rx="10" ry="3.33"/>
		<ellipse class="st7" cx="1190" cy="1585" rx="10" ry="3.33"/>
		<ellipse class="st7" cx="1290" cy="1558.33" rx="10" ry="3.33"/>
	</g>
	<polygon class="st5" points="990,1340 1000,1350 985,1350 975,1340 	"/>
	<polygon class="st5" points="1005,1355 1000,1355 1015,1370 1020,1370 	"/>
	<polygon class="st5" points="1025,1395 1045,1395 1065,1415 1045,1415 	"/>
	<polygon class="st9" points="1520,1700 1800,1980 1880,1980 1600,1700 	"/>
	<polygon class="st9" points="760,1320 1190,1750 1270,1750 840,1320 	"/>
	<polygon class="st9" points="1920,1700 2200,1980 2280,1980 2000,1700 	"/>
	<polygon class="st9" points="1190,1750 1240,1800 1620,1800 1570,1750 	"/>
	<polygon class="st9" points="1620,1720 1940,1720 2020,1800 1700,1800 	"/>
	<polygon class="st10" points="1600,1700 1620,1720 1940,1720 1920,1700 	"/>
	<path class="st9" d="M950,1510l85,85l-57.05-19.02c-11.89-3.96-24.34-5.98-36.88-5.98H685l-40-40h252.65
		c14.58,0,28.83-4.31,40.95-12.4L950,1510z"/>
	<g>
		<g>
			<polygon class="st5" points="1860,1725 1820,1725 1840,1745 1880,1745 			"/>
			<polygon class="st5" points="1845,1750 1885,1750 1890,1755 1850,1755 			"/>
			<polygon class="st5" points="1820,1735 1780,1735 1800,1755 1840,1755 			"/>
			<polygon class="st5" points="1770,1725 1810,1725 1815,1730 1775,1730 			"/>
			<polygon class="st5" points="1760,1725 1790,1755 1780,1755 1750,1725 			"/>
		</g>
		<g>
			<polygon class="st5" points="1940,1735 1900,1735 1920,1755 1960,1755 			"/>
			<polygon class="st5" points="1890,1725 1930,1725 1935,1730 1895,1730 			"/>
			<polygon class="st5" points="1880,1725 1910,1755 1900,1755 1870,1725 			"/>
		</g>
		<g>
			<polygon class="st5" points="1740,1725 1700,1725 1720,1745 1760,1745 			"/>
			<polygon class="st5" points="1725,1750 1765,1750 1770,1755 1730,1755 			"/>
			<polygon class="st5" points="1700,1735 1660,1735 1680,1755 1720,1755 			"/>
			<polygon class="st5" points="1650,1725 1690,1725 1695,1730 1655,1730 			"/>
			<polygon class="st5" points="1640,1725 1670,1755 1660,1755 1630,1725 			"/>
		</g>
	</g>
	<g>
		<g>
			<polygon class="st5" points="1895,1760 1855,1760 1875,1780 1915,1780 			"/>
			<polygon class="st5" points="1880,1785 1920,1785 1925,1790 1885,1790 			"/>
			<polygon class="st5" points="1855,1770 1815,1770 1835,1790 1875,1790 			"/>
			<polygon class="st5" points="1805,1760 1845,1760 1850,1765 1810,1765 			"/>
			<polygon class="st5" points="1795,1760 1825,1790 1815,1790 1785,1760 			"/>
		</g>
		<g>
			<polygon class="st5" points="1975,1770 1935,1770 1955,1790 1995,1790 			"/>
			<polygon class="st5" points="1925,1760 1965,1760 1970,1765 1930,1765 			"/>
			<polygon class="st5" points="1915,1760 1945,1790 1935,1790 1905,1760 			"/>
		</g>
		<g>
			<polygon class="st5" points="1775,1760 1735,1760 1755,1780 1795,1780 			"/>
			<polygon class="st5" points="1760,1785 1800,1785 1805,1790 1765,1790 			"/>
			<polygon class="st5" points="1735,1770 1695,1770 1715,1790 1755,1790 			"/>
			<polygon class="st5" points="1685,1760 1725,1760 1730,1765 1690,1765 			"/>
			<polygon class="st5" points="1675,1760 1705,1790 1695,1790 1665,1760 			"/>
		</g>
	</g>
	<polygon class="st5" points="845,1320 1275,1750 1270,1750 840,1320 	"/>
	<polygon class="st5" points="1270,1745 1275,1750 1570,1750 1565,1745 	"/>
	<g>
		<polygon class="st9" points="660,1545 645,1530 535,1530 550,1545 		"/>
		<polygon class="st9" points="680,1565 665,1550 600,1550 615,1565 		"/>
	</g>
	<g>
		<polygon class="st9" points="1220,1780 1205,1765 1120,1765 1135,1780 		"/>
		<polygon class="st9" points="1240,1800 1225,1785 1175,1785 1190,1800 		"/>
	</g>
	<polygon class="st5" points="1127.5,1497.5 1147.5,1497.5 1167.5,1517.5 1147.5,1517.5 	"/>
	<polygon class="st5" points="1267.5,1637.5 1287.5,1637.5 1307.5,1657.5 1287.5,1657.5 	"/>
	<polygon class="st5" points="1070,1425 1075,1425 1085,1435 1080,1435 	"/>
	<polygon class="st5" points="1172.5,1527.5 1177.5,1527.5 1187.5,1537.5 1182.5,1537.5 	"/>
	<polygon class="st5" points="1210,1565 1215,1565 1225,1575 1220,1575 	"/>
	<polygon class="st5" points="1225,1580 1230,1580 1240,1590 1235,1590 	"/>
	<polygon class="st5" points="1320,1675 1325,1675 1335,1685 1330,1685 	"/>
	<polygon class="st5" points="1080,1445 1095,1445 1105,1455 1090,1455 	"/>
	<polygon class="st5" points="1097.5,1462.5 1112.5,1462.5 1122.5,1472.5 1107.5,1472.5 	"/>
	<polygon class="st5" points="1177.5,1542.5 1192.5,1542.5 1202.5,1552.5 1187.5,1552.5 	"/>
	<polygon class="st5" points="1230,1595 1245,1595 1255,1605 1240,1605 	"/>
	<polygon class="st5" points="1297.5,1662.5 1312.5,1662.5 1322.5,1672.5 1307.5,1672.5 	"/>
	<polygon class="st5" points="1350,1690 1355,1695 1380,1695 1375,1690 	"/>
	<polygon class="st5" points="1435,1710 1440,1715 1465,1715 1460,1710 	"/>
	<polygon class="st5" points="1480,1710 1490,1720 1510,1720 1500,1710 	"/>
	<polygon class="st5" points="2050,1710 2055,1715 2090,1715 2085,1710 	"/>
	<polygon class="st5" points="2110,1690 2115,1695 2150,1695 2145,1690 	"/>
	<g class="st1">
		<ellipse class="st2" cx="662.5" cy="1369.17" rx="7.5" ry="2.5"/>
		<ellipse class="st2" cx="565" cy="1330" rx="10" ry="3.33"/>
		<ellipse class="st3" cx="542.5" cy="1369.17" rx="7.5" ry="2.5"/>
		<ellipse class="st4" cx="602.5" cy="1339.17" rx="7.5" ry="2.5"/>
		<ellipse class="st4" cx="572.5" cy="1284.17" rx="7.5" ry="2.5"/>
		<ellipse class="st2" cx="682.5" cy="1359.17" rx="7.5" ry="2.5"/>
		<ellipse class="st2" cx="570" cy="1246.67" rx="7.5" ry="2.5"/>
		<ellipse class="st5" cx="652.5" cy="1389.17" rx="7.5" ry="2.5"/>
		<ellipse class="st6" cx="700" cy="1331.67" rx="7.5" ry="2.5"/>
		<ellipse class="st6" cx="577.5" cy="1239.17" rx="7.5" ry="2.5"/>
		<ellipse class="st6" cx="667.5" cy="1299.17" rx="7.5" ry="2.5"/>
		<ellipse class="st6" cx="562.5" cy="1299.17" rx="7.5" ry="2.5"/>
		<ellipse class="st6" cx="502.5" cy="1239.17" rx="7.5" ry="2.5"/>
		<ellipse class="st3" cx="497.5" cy="1299.17" rx="7.5" ry="2.5"/>
		<ellipse class="st2" cx="725" cy="1403.33" rx="10" ry="3.33"/>
		<ellipse class="st6" cx="661.67" cy="1346.67" rx="10" ry="3.33"/>
		<ellipse class="st6" cx="607.5" cy="1292.5" rx="10" ry="3.33"/>
		<ellipse class="st6" cx="545" cy="1233.33" rx="10" ry="3.33"/>
		<ellipse class="st7" cx="600" cy="1315" rx="10" ry="3.33"/>
		<ellipse class="st7" cx="700" cy="1288.33" rx="10" ry="3.33"/>
	</g>
	<g class="st1">
		<ellipse class="st2" cx="357.5" cy="1424.17" rx="7.5" ry="2.5"/>
		<ellipse class="st2" cx="260" cy="1385" rx="10" ry="3.33"/>
		<ellipse class="st3" cx="237.5" cy="1424.17" rx="7.5" ry="2.5"/>
		<ellipse class="st4" cx="297.5" cy="1394.17" rx="7.5" ry="2.5"/>
		<ellipse class="st4" cx="267.5" cy="1339.17" rx="7.5" ry="2.5"/>
		<ellipse class="st2" cx="377.5" cy="1414.17" rx="7.5" ry="2.5"/>
		<ellipse class="st2" cx="265" cy="1301.67" rx="7.5" ry="2.5"/>
		<ellipse class="st5" cx="347.5" cy="1444.17" rx="7.5" ry="2.5"/>
		<ellipse class="st6" cx="395" cy="1386.67" rx="7.5" ry="2.5"/>
		<ellipse class="st6" cx="272.5" cy="1294.17" rx="7.5" ry="2.5"/>
		<ellipse class="st6" cx="362.5" cy="1354.17" rx="7.5" ry="2.5"/>
		<ellipse class="st6" cx="257.5" cy="1354.17" rx="7.5" ry="2.5"/>
		<ellipse class="st6" cx="197.5" cy="1294.17" rx="7.5" ry="2.5"/>
		<ellipse class="st3" cx="192.5" cy="1354.17" rx="7.5" ry="2.5"/>
		<ellipse class="st2" cx="420" cy="1458.33" rx="10" ry="3.33"/>
		<ellipse class="st6" cx="356.67" cy="1401.67" rx="10" ry="3.33"/>
		<ellipse class="st6" cx="302.5" cy="1347.5" rx="10" ry="3.33"/>
		<ellipse class="st6" cx="240" cy="1288.33" rx="10" ry="3.33"/>
		<ellipse class="st7" cx="295" cy="1370" rx="10" ry="3.33"/>
		<ellipse class="st7" cx="395" cy="1343.33" rx="10" ry="3.33"/>
	</g>
	<g class="st1">
		<ellipse class="st2" cx="357.5" cy="1899.17" rx="7.5" ry="2.5"/>
		<ellipse class="st2" cx="260" cy="1860" rx="10" ry="3.33"/>
		<ellipse class="st3" cx="237.5" cy="1899.17" rx="7.5" ry="2.5"/>
		<ellipse class="st4" cx="297.5" cy="1869.17" rx="7.5" ry="2.5"/>
		<ellipse class="st4" cx="267.5" cy="1814.17" rx="7.5" ry="2.5"/>
		<ellipse class="st2" cx="377.5" cy="1889.17" rx="7.5" ry="2.5"/>
		<ellipse class="st2" cx="265" cy="1776.67" rx="7.5" ry="2.5"/>
		<ellipse class="st5" cx="347.5" cy="1919.17" rx="7.5" ry="2.5"/>
		<ellipse class="st6" cx="395" cy="1861.67" rx="7.5" ry="2.5"/>
		<ellipse class="st6" cx="272.5" cy="1769.17" rx="7.5" ry="2.5"/>
		<ellipse class="st6" cx="362.5" cy="1829.17" rx="7.5" ry="2.5"/>
		<ellipse class="st6" cx="257.5" cy="1829.17" rx="7.5" ry="2.5"/>
		<ellipse class="st6" cx="197.5" cy="1769.17" rx="7.5" ry="2.5"/>
		<ellipse class="st3" cx="192.5" cy="1829.17" rx="7.5" ry="2.5"/>
		<ellipse class="st2" cx="420" cy="1933.33" rx="10" ry="3.33"/>
		<ellipse class="st6" cx="356.67" cy="1876.67" rx="10" ry="3.33"/>
		<ellipse class="st6" cx="302.5" cy="1822.5" rx="10" ry="3.33"/>
		<ellipse class="st6" cx="240" cy="1763.33" rx="10" ry="3.33"/>
		<ellipse class="st7" cx="295" cy="1845" rx="10" ry="3.33"/>
		<ellipse class="st7" cx="395" cy="1818.33" rx="10" ry="3.33"/>
	</g>
	<g class="st1">
		<ellipse class="st2" cx="1897.5" cy="1437.5" rx="7.5" ry="2.5"/>
		<ellipse class="st2" cx="1800" cy="1398.33" rx="10" ry="3.33"/>
		<ellipse class="st3" cx="1777.5" cy="1437.5" rx="7.5" ry="2.5"/>
		<ellipse class="st4" cx="1837.5" cy="1407.5" rx="7.5" ry="2.5"/>
		<ellipse class="st4" cx="1807.5" cy="1352.5" rx="7.5" ry="2.5"/>
		<ellipse class="st2" cx="1917.5" cy="1427.5" rx="7.5" ry="2.5"/>
		<ellipse class="st2" cx="1805" cy="1315" rx="7.5" ry="2.5"/>
		<ellipse class="st5" cx="1887.5" cy="1457.5" rx="7.5" ry="2.5"/>
		<ellipse class="st6" cx="1935" cy="1400" rx="7.5" ry="2.5"/>
		<ellipse class="st6" cx="1812.5" cy="1307.5" rx="7.5" ry="2.5"/>
		<ellipse class="st6" cx="1902.5" cy="1367.5" rx="7.5" ry="2.5"/>
		<ellipse class="st6" cx="1797.5" cy="1367.5" rx="7.5" ry="2.5"/>
		<ellipse class="st6" cx="1737.5" cy="1307.5" rx="7.5" ry="2.5"/>
		<ellipse class="st3" cx="1732.5" cy="1367.5" rx="7.5" ry="2.5"/>
		<ellipse class="st2" cx="1960" cy="1471.67" rx="10" ry="3.33"/>
		<ellipse class="st6" cx="1896.67" cy="1415" rx="10" ry="3.33"/>
		<ellipse class="st6" cx="1842.5" cy="1360.83" rx="10" ry="3.33"/>
		<ellipse class="st6" cx="1780" cy="1301.67" rx="10" ry="3.33"/>
		<ellipse class="st7" cx="1835" cy="1383.33" rx="10" ry="3.33"/>
		<ellipse class="st7" cx="1935" cy="1356.67" rx="10" ry="3.33"/>
	</g>
	<g class="st1">
		<ellipse class="st2" cx="2263.33" cy="1803.33" rx="7.5" ry="2.5"/>
		<ellipse class="st2" cx="2165.83" cy="1764.17" rx="10" ry="3.33"/>
		<ellipse class="st3" cx="2143.33" cy="1803.33" rx="7.5" ry="2.5"/>
		<ellipse class="st4" cx="2203.33" cy="1773.33" rx="7.5" ry="2.5"/>
		<ellipse class="st4" cx="2173.33" cy="1718.33" rx="7.5" ry="2.5"/>
		<ellipse class="st2" cx="2283.33" cy="1793.33" rx="7.5" ry="2.5"/>
		<ellipse class="st2" cx="2170.83" cy="1680.83" rx="7.5" ry="2.5"/>
		<ellipse class="st5" cx="2253.33" cy="1823.33" rx="7.5" ry="2.5"/>
		<ellipse class="st6" cx="2300.83" cy="1765.83" rx="7.5" ry="2.5"/>
		<ellipse class="st6" cx="2178.33" cy="1673.33" rx="7.5" ry="2.5"/>
		<ellipse class="st6" cx="2268.33" cy="1733.33" rx="7.5" ry="2.5"/>
		<ellipse class="st6" cx="2163.33" cy="1733.33" rx="7.5" ry="2.5"/>
		<ellipse class="st6" cx="2103.33" cy="1673.33" rx="7.5" ry="2.5"/>
		<ellipse class="st3" cx="2098.33" cy="1733.33" rx="7.5" ry="2.5"/>
		<ellipse class="st2" cx="2325.83" cy="1837.5" rx="10" ry="3.33"/>
		<ellipse class="st6" cx="2262.5" cy="1780.83" rx="10" ry="3.33"/>
		<ellipse class="st6" cx="2208.33" cy="1726.67" rx="10" ry="3.33"/>
		<ellipse class="st6" cx="2145.83" cy="1667.5" rx="10" ry="3.33"/>
		<ellipse class="st7" cx="2200.83" cy="1749.17" rx="10" ry="3.33"/>
		<ellipse class="st7" cx="2300.83" cy="1722.5" rx="10" ry="3.33"/>
	</g>
	<g class="st1">
		<ellipse class="st2" cx="662.5" cy="1829.17" rx="7.5" ry="2.5"/>
		<ellipse class="st2" cx="565" cy="1790" rx="10" ry="3.33"/>
		<ellipse class="st3" cx="542.5" cy="1829.17" rx="7.5" ry="2.5"/>
		<ellipse class="st4" cx="602.5" cy="1799.17" rx="7.5" ry="2.5"/>
		<ellipse class="st4" cx="572.5" cy="1744.17" rx="7.5" ry="2.5"/>
		<ellipse class="st2" cx="682.5" cy="1819.17" rx="7.5" ry="2.5"/>
		<ellipse class="st2" cx="570" cy="1706.67" rx="7.5" ry="2.5"/>
		<ellipse class="st5" cx="652.5" cy="1849.17" rx="7.5" ry="2.5"/>
		<ellipse class="st6" cx="700" cy="1791.67" rx="7.5" ry="2.5"/>
		<ellipse class="st6" cx="577.5" cy="1699.17" rx="7.5" ry="2.5"/>
		<ellipse class="st6" cx="667.5" cy="1759.17" rx="7.5" ry="2.5"/>
		<ellipse class="st6" cx="562.5" cy="1759.17" rx="7.5" ry="2.5"/>
		<ellipse class="st6" cx="502.5" cy="1699.17" rx="7.5" ry="2.5"/>
		<ellipse class="st3" cx="497.5" cy="1759.17" rx="7.5" ry="2.5"/>
		<ellipse class="st2" cx="725" cy="1863.33" rx="10" ry="3.33"/>
		<ellipse class="st6" cx="661.67" cy="1806.67" rx="10" ry="3.33"/>
		<ellipse class="st6" cx="607.5" cy="1752.5" rx="10" ry="3.33"/>
		<ellipse class="st6" cx="545" cy="1693.33" rx="10" ry="3.33"/>
		<ellipse class="st7" cx="600" cy="1775" rx="10" ry="3.33"/>
		<ellipse class="st7" cx="700" cy="1748.33" rx="10" ry="3.33"/>
	</g>
	<g class="st1">
		<ellipse class="st2" cx="1042.5" cy="1912.5" rx="7.5" ry="2.5"/>
		<ellipse class="st2" cx="945" cy="1873.33" rx="10" ry="3.33"/>
		<ellipse class="st3" cx="922.5" cy="1912.5" rx="7.5" ry="2.5"/>
		<ellipse class="st4" cx="982.5" cy="1882.5" rx="7.5" ry="2.5"/>
		<ellipse class="st4" cx="952.5" cy="1827.5" rx="7.5" ry="2.5"/>
		<ellipse class="st2" cx="1062.5" cy="1902.5" rx="7.5" ry="2.5"/>
		<ellipse class="st2" cx="950" cy="1790" rx="7.5" ry="2.5"/>
		<ellipse class="st5" cx="1032.5" cy="1932.5" rx="7.5" ry="2.5"/>
		<ellipse class="st6" cx="1080" cy="1875" rx="7.5" ry="2.5"/>
		<ellipse class="st6" cx="957.5" cy="1782.5" rx="7.5" ry="2.5"/>
		<ellipse class="st6" cx="1047.5" cy="1842.5" rx="7.5" ry="2.5"/>
		<ellipse class="st6" cx="942.5" cy="1842.5" rx="7.5" ry="2.5"/>
		<ellipse class="st6" cx="882.5" cy="1782.5" rx="7.5" ry="2.5"/>
		<ellipse class="st3" cx="877.5" cy="1842.5" rx="7.5" ry="2.5"/>
		<ellipse class="st2" cx="1105" cy="1946.67" rx="10" ry="3.33"/>
		<ellipse class="st6" cx="1041.67" cy="1890" rx="10" ry="3.33"/>
		<ellipse class="st6" cx="987.5" cy="1835.83" rx="10" ry="3.33"/>
		<ellipse class="st6" cx="925" cy="1776.67" rx="10" ry="3.33"/>
		<ellipse class="st7" cx="980" cy="1858.33" rx="10" ry="3.33"/>
		<ellipse class="st7" cx="1080" cy="1831.67" rx="10" ry="3.33"/>
	</g>
	<g class="st1">
		<ellipse class="st2" cx="492.5" cy="1749.17" rx="7.5" ry="2.5"/>
		<ellipse class="st2" cx="395" cy="1710" rx="10" ry="3.33"/>
		<ellipse class="st3" cx="372.5" cy="1749.17" rx="7.5" ry="2.5"/>
		<ellipse class="st4" cx="432.5" cy="1719.17" rx="7.5" ry="2.5"/>
		<ellipse class="st4" cx="402.5" cy="1664.17" rx="7.5" ry="2.5"/>
		<ellipse class="st2" cx="512.5" cy="1739.17" rx="7.5" ry="2.5"/>
		<ellipse class="st2" cx="400" cy="1626.67" rx="7.5" ry="2.5"/>
		<ellipse class="st5" cx="482.5" cy="1769.17" rx="7.5" ry="2.5"/>
		<ellipse class="st6" cx="530" cy="1711.67" rx="7.5" ry="2.5"/>
		<ellipse class="st6" cx="407.5" cy="1619.17" rx="7.5" ry="2.5"/>
		<ellipse class="st6" cx="497.5" cy="1679.17" rx="7.5" ry="2.5"/>
		<ellipse class="st6" cx="392.5" cy="1679.17" rx="7.5" ry="2.5"/>
		<ellipse class="st6" cx="332.5" cy="1619.17" rx="7.5" ry="2.5"/>
		<ellipse class="st3" cx="327.5" cy="1679.17" rx="7.5" ry="2.5"/>
		<ellipse class="st2" cx="555" cy="1783.33" rx="10" ry="3.33"/>
		<ellipse class="st6" cx="491.67" cy="1726.67" rx="10" ry="3.33"/>
		<ellipse class="st6" cx="437.5" cy="1672.5" rx="10" ry="3.33"/>
		<ellipse class="st6" cx="375" cy="1613.33" rx="10" ry="3.33"/>
		<ellipse class="st7" cx="430" cy="1695" rx="10" ry="3.33"/>
		<ellipse class="st7" cx="530" cy="1668.33" rx="10" ry="3.33"/>
	</g>
	<g class="st1">
		<ellipse class="st2" cx="422.5" cy="1624.17" rx="7.5" ry="2.5"/>
		<ellipse class="st2" cx="325" cy="1585" rx="10" ry="3.33"/>
		<ellipse class="st3" cx="302.5" cy="1624.17" rx="7.5" ry="2.5"/>
		<ellipse class="st4" cx="362.5" cy="1594.17" rx="7.5" ry="2.5"/>
		<ellipse class="st4" cx="332.5" cy="1539.17" rx="7.5" ry="2.5"/>
		<ellipse class="st2" cx="442.5" cy="1614.17" rx="7.5" ry="2.5"/>
		<ellipse class="st2" cx="330" cy="1501.67" rx="7.5" ry="2.5"/>
		<ellipse class="st5" cx="412.5" cy="1644.17" rx="7.5" ry="2.5"/>
		<ellipse class="st6" cx="460" cy="1586.67" rx="7.5" ry="2.5"/>
		<ellipse class="st6" cx="337.5" cy="1494.17" rx="7.5" ry="2.5"/>
		<ellipse class="st6" cx="427.5" cy="1554.17" rx="7.5" ry="2.5"/>
		<ellipse class="st6" cx="322.5" cy="1554.17" rx="7.5" ry="2.5"/>
		<ellipse class="st6" cx="262.5" cy="1494.17" rx="7.5" ry="2.5"/>
		<ellipse class="st3" cx="257.5" cy="1554.17" rx="7.5" ry="2.5"/>
		<ellipse class="st2" cx="485" cy="1658.33" rx="10" ry="3.33"/>
		<ellipse class="st6" cx="421.67" cy="1601.67" rx="10" ry="3.33"/>
		<ellipse class="st6" cx="367.5" cy="1547.5" rx="10" ry="3.33"/>
		<ellipse class="st6" cx="305" cy="1488.33" rx="10" ry="3.33"/>
		<ellipse class="st7" cx="360" cy="1570" rx="10" ry="3.33"/>
		<ellipse class="st7" cx="460" cy="1543.33" rx="10" ry="3.33"/>
	</g>
	<g class="st1">
		<ellipse class="st2" cx="927.5" cy="1732.5" rx="7.5" ry="2.5"/>
		<ellipse class="st2" cx="830" cy="1693.33" rx="10" ry="3.33"/>
		<ellipse class="st3" cx="807.5" cy="1732.5" rx="7.5" ry="2.5"/>
		<ellipse class="st4" cx="867.5" cy="1702.5" rx="7.5" ry="2.5"/>
		<ellipse class="st4" cx="837.5" cy="1647.5" rx="7.5" ry="2.5"/>
		<ellipse class="st2" cx="947.5" cy="1722.5" rx="7.5" ry="2.5"/>
		<ellipse class="st2" cx="835" cy="1610" rx="7.5" ry="2.5"/>
		<ellipse class="st5" cx="917.5" cy="1752.5" rx="7.5" ry="2.5"/>
		<ellipse class="st6" cx="965" cy="1695" rx="7.5" ry="2.5"/>
		<ellipse class="st6" cx="842.5" cy="1602.5" rx="7.5" ry="2.5"/>
		<ellipse class="st6" cx="932.5" cy="1662.5" rx="7.5" ry="2.5"/>
		<ellipse class="st6" cx="827.5" cy="1662.5" rx="7.5" ry="2.5"/>
		<ellipse class="st6" cx="767.5" cy="1602.5" rx="7.5" ry="2.5"/>
		<ellipse class="st3" cx="762.5" cy="1662.5" rx="7.5" ry="2.5"/>
		<ellipse class="st2" cx="990" cy="1766.67" rx="10" ry="3.33"/>
		<ellipse class="st6" cx="926.67" cy="1710" rx="10" ry="3.33"/>
		<ellipse class="st6" cx="872.5" cy="1655.83" rx="10" ry="3.33"/>
		<ellipse class="st6" cx="810" cy="1596.67" rx="10" ry="3.33"/>
		<ellipse class="st7" cx="865" cy="1678.33" rx="10" ry="3.33"/>
		<ellipse class="st7" cx="965" cy="1651.67" rx="10" ry="3.33"/>
	</g>
</g>
</svg>
