<?xml version="1.0" encoding="utf-8"?>
<!-- Generator: Adobe Illustrator 23.1.1, SVG Export Plug-In . SVG Version: 6.00 Build 0)  -->
<svg version="1.1" id="Options" xmlns="http://www.w3.org/2000/svg" xmlns:xlink="http://www.w3.org/1999/xlink" x="0px" y="0px"
	 viewBox="0 0 400 400" style="enable-background:new 0 0 400 400;" xml:space="preserve">
<style type="text/css">
	.st0{fill:none;}
	.st1{opacity:0.5;}
	.st2{fill:url(#SVGID_1_);}
	.st3{fill:url(#SVGID_2_);}
	.st4{fill:url(#SVGID_3_);}
	.st5{fill:url(#SVGID_4_);}
	.st6{fill:url(#SVGID_5_);}
	.st7{fill:url(#SVGID_6_);}
	.st8{fill:url(#SVGID_7_);}
	.st9{fill:url(#SVGID_8_);}
	.st10{fill:url(#SVGID_9_);}
	.st11{fill:url(#SVGID_10_);}
	.st12{fill:url(#SVGID_11_);}
	.st13{fill:url(#SVGID_12_);}
	.st14{fill:url(#SVGID_13_);}
	.st15{fill:url(#SVGID_14_);}
	.st16{fill:url(#SVGID_15_);}
	.st17{fill:url(#SVGID_16_);}
	.st18{fill:url(#SVGID_17_);}
	.st19{opacity:0.25;fill:#FFFFFF;enable-background:new    ;}
</style>
<title>Artboard 2 copy 2</title>
<rect class="st0" width="400" height="400"/>
<g class="st1">
	<linearGradient id="SVGID_1_" gradientUnits="userSpaceOnUse" x1="70" y1="300" x2="80" y2="300">
		<stop  offset="0" style="stop-color:#E19176"/>
		<stop  offset="1" style="stop-color:#B9785D"/>
	</linearGradient>
	<path class="st2" d="M75,240L75,240c2.8,0,5,2.2,5,5v110c0,2.8-2.2,5-5,5l0,0c-2.8,0-5-2.2-5-5V245C70,242.2,72.2,240,75,240z"/>
	<linearGradient id="SVGID_2_" gradientUnits="userSpaceOnUse" x1="80" y1="255" x2="110" y2="255">
		<stop  offset="0" style="stop-color:#E19176"/>
		<stop  offset="1" style="stop-color:#B9785D"/>
	</linearGradient>
	<rect x="80" y="250" class="st3" width="30" height="10"/>
	<linearGradient id="SVGID_3_" gradientUnits="userSpaceOnUse" x1="80" y1="295" x2="110" y2="295">
		<stop  offset="0" style="stop-color:#E19176"/>
		<stop  offset="1" style="stop-color:#B9785D"/>
	</linearGradient>
	<rect x="80" y="290" class="st4" width="30" height="10"/>
	<linearGradient id="SVGID_4_" gradientUnits="userSpaceOnUse" x1="80" y1="335" x2="110" y2="335">
		<stop  offset="0" style="stop-color:#E19176"/>
		<stop  offset="1" style="stop-color:#B9785D"/>
	</linearGradient>
	<rect x="80" y="330" class="st5" width="30" height="10"/>
	<linearGradient id="SVGID_5_" gradientUnits="userSpaceOnUse" x1="40" y1="255" x2="70" y2="255">
		<stop  offset="0" style="stop-color:#E19176"/>
		<stop  offset="1" style="stop-color:#B9785D"/>
	</linearGradient>
	<rect x="40" y="250" class="st6" width="30" height="10"/>
	<linearGradient id="SVGID_6_" gradientUnits="userSpaceOnUse" x1="40" y1="295" x2="70" y2="295">
		<stop  offset="0" style="stop-color:#E19176"/>
		<stop  offset="1" style="stop-color:#B9785D"/>
	</linearGradient>
	<rect x="40" y="290" class="st7" width="30" height="10"/>
	<linearGradient id="SVGID_7_" gradientUnits="userSpaceOnUse" x1="40" y1="335" x2="70" y2="335">
		<stop  offset="0" style="stop-color:#E19176"/>
		<stop  offset="1" style="stop-color:#B9785D"/>
	</linearGradient>
	<rect x="40" y="330" class="st8" width="30" height="10"/>
	<linearGradient id="SVGID_8_" gradientUnits="userSpaceOnUse" x1="290" y1="255" x2="320" y2="255">
		<stop  offset="0" style="stop-color:#E19176"/>
		<stop  offset="1" style="stop-color:#B9785D"/>
	</linearGradient>
	<rect x="290" y="250" class="st9" width="30" height="10"/>
	<linearGradient id="SVGID_9_" gradientUnits="userSpaceOnUse" x1="290" y1="295" x2="320" y2="295">
		<stop  offset="0" style="stop-color:#E19176"/>
		<stop  offset="1" style="stop-color:#B9785D"/>
	</linearGradient>
	<rect x="290" y="290" class="st10" width="30" height="10"/>
	<linearGradient id="SVGID_10_" gradientUnits="userSpaceOnUse" x1="290" y1="335" x2="320" y2="335">
		<stop  offset="0" style="stop-color:#E19176"/>
		<stop  offset="1" style="stop-color:#B9785D"/>
	</linearGradient>
	<rect x="290" y="330" class="st11" width="30" height="10"/>
	<linearGradient id="SVGID_11_" gradientUnits="userSpaceOnUse" x1="330" y1="255" x2="360" y2="255">
		<stop  offset="0" style="stop-color:#E19176"/>
		<stop  offset="1" style="stop-color:#B9785D"/>
	</linearGradient>
	<rect x="330" y="250" class="st12" width="30" height="10"/>
	<linearGradient id="SVGID_12_" gradientUnits="userSpaceOnUse" x1="330" y1="295" x2="360" y2="295">
		<stop  offset="0" style="stop-color:#E19176"/>
		<stop  offset="1" style="stop-color:#B9785D"/>
	</linearGradient>
	<rect x="330" y="290" class="st13" width="30" height="10"/>
	<linearGradient id="SVGID_13_" gradientUnits="userSpaceOnUse" x1="330" y1="335" x2="360" y2="335">
		<stop  offset="0" style="stop-color:#E19176"/>
		<stop  offset="1" style="stop-color:#B9785D"/>
	</linearGradient>
	<rect x="330" y="330" class="st14" width="30" height="10"/>
	<linearGradient id="SVGID_14_" gradientUnits="userSpaceOnUse" x1="110" y1="300" x2="120" y2="300">
		<stop  offset="0" style="stop-color:#E19176"/>
		<stop  offset="1" style="stop-color:#B9785D"/>
	</linearGradient>
	<path class="st15" d="M115,240L115,240c2.8,0,5,2.2,5,5v110c0,2.8-2.2,5-5,5l0,0c-2.8,0-5-2.2-5-5V245C110,242.2,112.2,240,115,240
		z"/>
	<linearGradient id="SVGID_15_" gradientUnits="userSpaceOnUse" x1="280" y1="220" x2="290" y2="220">
		<stop  offset="0" style="stop-color:#E19176"/>
		<stop  offset="1" style="stop-color:#B9785D"/>
	</linearGradient>
	<rect x="280" y="80" class="st16" width="10" height="280"/>
	<linearGradient id="SVGID_16_" gradientUnits="userSpaceOnUse" x1="320" y1="300" x2="330" y2="300">
		<stop  offset="0" style="stop-color:#E19176"/>
		<stop  offset="1" style="stop-color:#B9785D"/>
	</linearGradient>
	<path class="st17" d="M325,240L325,240c2.8,0,5,2.2,5,5v110c0,2.8-2.2,5-5,5l0,0c-2.8,0-5-2.2-5-5V245C320,242.2,322.2,240,325,240
		z"/>
	<linearGradient id="SVGID_17_" gradientUnits="userSpaceOnUse" x1="220" y1="120" x2="340" y2="120">
		<stop  offset="0" style="stop-color:#FBEAA1"/>
		<stop  offset="0.9997" style="stop-color:#EED25E"/>
	</linearGradient>
	<polygon class="st18" points="220,120 240,100 320,100 340,100 320,120 340,140 240,140 	"/>
	<polygon class="st19" points="230,120 243.7,106.3 325,106.3 311.3,120 325,133.7 243.7,133.7 	"/>
</g>
</svg>
