<?xml version="1.0" encoding="utf-8"?>
<!-- Generator: Adobe Illustrator 23.1.1, SVG Export Plug-In . SVG Version: 6.00 Build 0)  -->
<svg version="1.1" id="Options" xmlns="http://www.w3.org/2000/svg" xmlns:xlink="http://www.w3.org/1999/xlink" x="0px" y="0px"
	 viewBox="0 0 400 400" style="enable-background:new 0 0 400 400;" xml:space="preserve">
<style type="text/css">
	.st0{fill:none;}
	.st1{opacity:0.5;}
	.st2{fill:url(#SVGID_1_);}
	.st3{fill:url(#SVGID_2_);}
	.st4{fill:url(#SVGID_3_);}
	.st5{fill:url(#SVGID_4_);}
	.st6{fill:url(#SVGID_5_);}
	.st7{fill:url(#SVGID_6_);}
	.st8{fill:url(#SVGID_7_);}
	.st9{fill:url(#SVGID_8_);}
	.st10{fill:url(#SVGID_9_);}
	.st11{fill:#AFC0C5;}
	.st12{fill:url(#SVGID_10_);}
	.st13{fill:url(#SVGID_11_);}
	.st14{fill:url(#SVGID_12_);}
	.st15{fill:url(#SVGID_13_);}
	.st16{fill:url(#SVGID_14_);}
	.st17{fill:url(#SVGID_15_);}
	.st18{fill:url(#SVGID_16_);}
	.st19{fill:url(#SVGID_17_);}
	.st20{fill:url(#SVGID_18_);}
	.st21{fill:url(#SVGID_19_);}
	.st22{fill:url(#SVGID_20_);}
	.st23{fill:url(#SVGID_21_);}
	.st24{fill:url(#SVGID_22_);}
	.st25{fill:url(#SVGID_23_);}
	.st26{fill:url(#SVGID_24_);}
	.st27{fill:url(#SVGID_25_);}
	.st28{fill:url(#SVGID_26_);}
	.st29{fill:url(#SVGID_27_);}
	.st30{fill:url(#SVGID_28_);}
	.st31{fill:url(#SVGID_29_);}
	.st32{fill:url(#SVGID_30_);}
	.st33{fill:url(#SVGID_31_);}
	.st34{fill:url(#SVGID_32_);}
	.st35{fill:url(#SVGID_33_);}
	.st36{fill:url(#SVGID_34_);}
	.st37{fill:url(#SVGID_35_);}
	.st38{fill:url(#SVGID_36_);}
	.st39{fill:url(#SVGID_37_);}
	.st40{fill:#3C4044;}
</style>
<title>Artboard 2 copy 3</title>
<rect class="st0" width="400" height="400"/>
<g class="st1">
	<linearGradient id="SVGID_1_" gradientUnits="userSpaceOnUse" x1="45" y1="102.5715" x2="45" y2="357.1754">
		<stop  offset="0" style="stop-color:#818D92"/>
		<stop  offset="1" style="stop-color:#3C4044"/>
	</linearGradient>
	<rect x="40" y="160" class="st2" width="10" height="200"/>
	<linearGradient id="SVGID_2_" gradientUnits="userSpaceOnUse" x1="85" y1="102.5715" x2="85" y2="357.1754">
		<stop  offset="0" style="stop-color:#818D92"/>
		<stop  offset="1" style="stop-color:#3C4044"/>
	</linearGradient>
	<rect x="80" y="120" class="st3" width="10" height="240"/>
	<linearGradient id="SVGID_3_" gradientUnits="userSpaceOnUse" x1="125" y1="102.5715" x2="125" y2="357.1754">
		<stop  offset="0" style="stop-color:#818D92"/>
		<stop  offset="1" style="stop-color:#3C4044"/>
	</linearGradient>
	<rect x="120" y="160" class="st4" width="10" height="200"/>
	<linearGradient id="SVGID_4_" gradientUnits="userSpaceOnUse" x1="165" y1="102.5715" x2="165" y2="357.1754">
		<stop  offset="0" style="stop-color:#818D92"/>
		<stop  offset="1" style="stop-color:#3C4044"/>
	</linearGradient>
	<rect x="160" y="120" class="st5" width="10" height="240"/>
	<linearGradient id="SVGID_5_" gradientUnits="userSpaceOnUse" x1="235" y1="93.2487" x2="235" y2="357.9803">
		<stop  offset="0" style="stop-color:#818D92"/>
		<stop  offset="1" style="stop-color:#3C4044"/>
	</linearGradient>
	<rect x="230" y="120" class="st6" width="10" height="240"/>
	<linearGradient id="SVGID_6_" gradientUnits="userSpaceOnUse" x1="275" y1="93.2487" x2="275" y2="357.9803">
		<stop  offset="0" style="stop-color:#818D92"/>
		<stop  offset="1" style="stop-color:#3C4044"/>
	</linearGradient>
	<rect x="270" y="160" class="st7" width="10" height="200"/>
	<linearGradient id="SVGID_7_" gradientUnits="userSpaceOnUse" x1="315" y1="93.2487" x2="315" y2="357.9803">
		<stop  offset="0" style="stop-color:#818D92"/>
		<stop  offset="1" style="stop-color:#3C4044"/>
	</linearGradient>
	<rect x="310" y="120" class="st8" width="10" height="240"/>
	<linearGradient id="SVGID_8_" gradientUnits="userSpaceOnUse" x1="355" y1="93.2487" x2="355" y2="357.9803">
		<stop  offset="0" style="stop-color:#818D92"/>
		<stop  offset="1" style="stop-color:#3C4044"/>
	</linearGradient>
	<rect x="350" y="160" class="st9" width="10" height="200"/>
	<linearGradient id="SVGID_9_" gradientUnits="userSpaceOnUse" x1="181.85" y1="102.5715" x2="181.85" y2="357.1754">
		<stop  offset="0" style="stop-color:#818D92"/>
		<stop  offset="1" style="stop-color:#3C4044"/>
	</linearGradient>
	<polygon class="st10" points="170,170 197.5,197.5 197.5,190 166.2,158.8 	"/>
	<path class="st11" d="M200,172.8c-4,0-7.2,3.2-7.2,7.2s3.2,7.2,7.2,7.2c4,0,7.2-3.2,7.2-7.2S204,172.8,200,172.8z M200,192.8
		c-7.1,0-12.8-5.8-12.8-12.8s5.8-12.8,12.8-12.8s12.8,5.8,12.8,12.8S207.1,192.8,200,192.8z"/>
	<linearGradient id="SVGID_10_" gradientUnits="userSpaceOnUse" x1="220.6" y1="93.2487" x2="220.6" y2="357.9803">
		<stop  offset="0" style="stop-color:#818D92"/>
		<stop  offset="1" style="stop-color:#3C4044"/>
	</linearGradient>
	<polygon class="st12" points="232.5,166.2 205,193.8 205,186.2 236.2,155 	"/>
	<linearGradient id="SVGID_11_" gradientUnits="userSpaceOnUse" x1="175" y1="200" x2="225" y2="200">
		<stop  offset="0" style="stop-color:#818D92"/>
		<stop  offset="1" style="stop-color:#3C4044"/>
	</linearGradient>
	<path class="st13" d="M183.4,180h33.2c4.6,0,8.4,3.8,8.4,8.4v23.2c0,4.6-3.8,8.4-8.4,8.4h-33.2c-4.6,0-8.4-3.8-8.4-8.4v-23.2
		C175,183.8,178.8,180,183.4,180z"/>
	<linearGradient id="SVGID_12_" gradientUnits="userSpaceOnUse" x1="95" y1="102.5715" x2="95" y2="357.1754">
		<stop  offset="0" style="stop-color:#818D92"/>
		<stop  offset="1" style="stop-color:#3C4044"/>
	</linearGradient>
	<rect x="20" y="350" class="st14" width="150" height="10"/>
	<linearGradient id="SVGID_13_" gradientUnits="userSpaceOnUse" x1="305" y1="93.2487" x2="305" y2="357.9803">
		<stop  offset="0" style="stop-color:#818D92"/>
		<stop  offset="1" style="stop-color:#3C4044"/>
	</linearGradient>
	<rect x="230" y="350" class="st15" width="150" height="10"/>
	<linearGradient id="SVGID_14_" gradientUnits="userSpaceOnUse" x1="45" y1="102.5715" x2="45" y2="357.1754">
		<stop  offset="0" style="stop-color:#818D92"/>
		<stop  offset="1" style="stop-color:#3C4044"/>
	</linearGradient>
	<circle class="st16" cx="45" cy="160" r="10"/>
	<linearGradient id="SVGID_15_" gradientUnits="userSpaceOnUse" x1="125" y1="102.5715" x2="125" y2="357.1754">
		<stop  offset="0" style="stop-color:#818D92"/>
		<stop  offset="1" style="stop-color:#3C4044"/>
	</linearGradient>
	<circle class="st17" cx="125" cy="160" r="10"/>
	<linearGradient id="SVGID_16_" gradientUnits="userSpaceOnUse" x1="85" y1="102.5715" x2="85" y2="357.1754">
		<stop  offset="0" style="stop-color:#818D92"/>
		<stop  offset="1" style="stop-color:#3C4044"/>
	</linearGradient>
	<circle class="st18" cx="85" cy="120" r="10"/>
	<linearGradient id="SVGID_17_" gradientUnits="userSpaceOnUse" x1="315" y1="93.2487" x2="315" y2="357.9803">
		<stop  offset="0" style="stop-color:#818D92"/>
		<stop  offset="1" style="stop-color:#3C4044"/>
	</linearGradient>
	<circle class="st19" cx="315" cy="120" r="10"/>
	<linearGradient id="SVGID_18_" gradientUnits="userSpaceOnUse" x1="275" y1="93.2487" x2="275" y2="357.9803">
		<stop  offset="0" style="stop-color:#818D92"/>
		<stop  offset="1" style="stop-color:#3C4044"/>
	</linearGradient>
	<circle class="st20" cx="275" cy="160" r="10"/>
	<linearGradient id="SVGID_19_" gradientUnits="userSpaceOnUse" x1="355" y1="93.2487" x2="355" y2="357.9803">
		<stop  offset="0" style="stop-color:#818D92"/>
		<stop  offset="1" style="stop-color:#3C4044"/>
	</linearGradient>
	<circle class="st21" cx="355" cy="160" r="10"/>
	<linearGradient id="SVGID_20_" gradientUnits="userSpaceOnUse" x1="235" y1="93.2487" x2="235" y2="357.9803">
		<stop  offset="0" style="stop-color:#818D92"/>
		<stop  offset="1" style="stop-color:#3C4044"/>
	</linearGradient>
	<path class="st22" d="M230,120l2.9-11.5c0.3-1.2,1.5-1.9,2.7-1.6c0.8,0.2,1.4,0.8,1.6,1.6L240,120H230z"/>
	<linearGradient id="SVGID_21_" gradientUnits="userSpaceOnUse" x1="165" y1="102.5715" x2="165" y2="357.1754">
		<stop  offset="0" style="stop-color:#818D92"/>
		<stop  offset="1" style="stop-color:#3C4044"/>
	</linearGradient>
	<path class="st23" d="M160,120l2.9-11.5c0.3-1.2,1.5-1.9,2.7-1.6c0.8,0.2,1.4,0.8,1.6,1.6L170,120H160z"/>
	<linearGradient id="SVGID_22_" gradientUnits="userSpaceOnUse" x1="65" y1="102.5715" x2="65" y2="357.1754">
		<stop  offset="0" style="stop-color:#B9785D"/>
		<stop  offset="1" style="stop-color:#00A68D"/>
	</linearGradient>
	<polygon class="st24" points="50,210 80,180 80,190 50,220 	"/>
	<linearGradient id="SVGID_23_" gradientUnits="userSpaceOnUse" x1="65" y1="102.5715" x2="65" y2="357.1754">
		<stop  offset="0" style="stop-color:#B9785D"/>
		<stop  offset="1" style="stop-color:#00A68D"/>
	</linearGradient>
	<polygon class="st25" points="50,270 80,240 80,250 50,280 	"/>
	<linearGradient id="SVGID_24_" gradientUnits="userSpaceOnUse" x1="65" y1="102.5715" x2="65" y2="357.1754">
		<stop  offset="0" style="stop-color:#B9785D"/>
		<stop  offset="1" style="stop-color:#00A68D"/>
	</linearGradient>
	<polygon class="st26" points="50,330 80,300 80,310 50,340 	"/>
	<linearGradient id="SVGID_25_" gradientUnits="userSpaceOnUse" x1="145" y1="102.5715" x2="145" y2="357.1754">
		<stop  offset="0" style="stop-color:#B9785D"/>
		<stop  offset="1" style="stop-color:#00A68D"/>
	</linearGradient>
	<polygon class="st27" points="130,210 160,180 160,190 130,220 	"/>
	<linearGradient id="SVGID_26_" gradientUnits="userSpaceOnUse" x1="145" y1="102.5715" x2="145" y2="357.1754">
		<stop  offset="0" style="stop-color:#B9785D"/>
		<stop  offset="1" style="stop-color:#00A68D"/>
	</linearGradient>
	<polygon class="st28" points="130,270 160,240 160,250 130,280 	"/>
	<linearGradient id="SVGID_27_" gradientUnits="userSpaceOnUse" x1="145" y1="102.5715" x2="145" y2="357.1754">
		<stop  offset="0" style="stop-color:#B9785D"/>
		<stop  offset="1" style="stop-color:#00A68D"/>
	</linearGradient>
	<polygon class="st29" points="130,330 160,300 160,310 130,340 	"/>
	<linearGradient id="SVGID_28_" gradientUnits="userSpaceOnUse" x1="255" y1="93.2487" x2="255" y2="357.9803">
		<stop  offset="0" style="stop-color:#B9785D"/>
		<stop  offset="1" style="stop-color:#00A68D"/>
	</linearGradient>
	<polygon class="st30" points="240,210 270,180 270,190 240,220 	"/>
	<linearGradient id="SVGID_29_" gradientUnits="userSpaceOnUse" x1="255" y1="93.2487" x2="255" y2="357.9803">
		<stop  offset="0" style="stop-color:#B9785D"/>
		<stop  offset="1" style="stop-color:#00A68D"/>
	</linearGradient>
	<polygon class="st31" points="240,270 270,240 270,250 240,280 	"/>
	<linearGradient id="SVGID_30_" gradientUnits="userSpaceOnUse" x1="255" y1="93.2487" x2="255" y2="357.9803">
		<stop  offset="0" style="stop-color:#B9785D"/>
		<stop  offset="1" style="stop-color:#00A68D"/>
	</linearGradient>
	<polygon class="st32" points="240,330 270,300 270,310 240,340 	"/>
	<linearGradient id="SVGID_31_" gradientUnits="userSpaceOnUse" x1="335" y1="93.2487" x2="335" y2="357.9803">
		<stop  offset="0" style="stop-color:#B9785D"/>
		<stop  offset="1" style="stop-color:#00A68D"/>
	</linearGradient>
	<polygon class="st33" points="320,210 350,180 350,190 320,220 	"/>
	<linearGradient id="SVGID_32_" gradientUnits="userSpaceOnUse" x1="335" y1="93.2487" x2="335" y2="357.9803">
		<stop  offset="0" style="stop-color:#B9785D"/>
		<stop  offset="1" style="stop-color:#00A68D"/>
	</linearGradient>
	<polygon class="st34" points="320,270 350,240 350,250 320,280 	"/>
	<linearGradient id="SVGID_33_" gradientUnits="userSpaceOnUse" x1="335" y1="93.2487" x2="335" y2="357.9803">
		<stop  offset="0" style="stop-color:#B9785D"/>
		<stop  offset="1" style="stop-color:#00A68D"/>
	</linearGradient>
	<polygon class="st35" points="320,330 350,300 350,310 320,340 	"/>
	<linearGradient id="SVGID_34_" gradientUnits="userSpaceOnUse" x1="105" y1="102.5715" x2="105" y2="357.1754">
		<stop  offset="0" style="stop-color:#B9785D"/>
		<stop  offset="1" style="stop-color:#00A68D"/>
	</linearGradient>
	<polygon class="st36" points="90,210 120,240 120,250 90,220 	"/>
	<linearGradient id="SVGID_35_" gradientUnits="userSpaceOnUse" x1="105" y1="102.5715" x2="105" y2="357.1754">
		<stop  offset="0" style="stop-color:#B9785D"/>
		<stop  offset="1" style="stop-color:#00A68D"/>
	</linearGradient>
	<polygon class="st37" points="90,270 120,300 120,310 90,280 	"/>
	<linearGradient id="SVGID_36_" gradientUnits="userSpaceOnUse" x1="295" y1="93.2487" x2="295" y2="357.9803">
		<stop  offset="0" style="stop-color:#B9785D"/>
		<stop  offset="1" style="stop-color:#00A68D"/>
	</linearGradient>
	<polygon class="st38" points="280,210 310,240 310,250 280,220 	"/>
	<linearGradient id="SVGID_37_" gradientUnits="userSpaceOnUse" x1="295" y1="93.2487" x2="295" y2="357.9803">
		<stop  offset="0" style="stop-color:#B9785D"/>
		<stop  offset="1" style="stop-color:#00A68D"/>
	</linearGradient>
	<polygon class="st39" points="280,270 310,300 310,310 280,280 	"/>
	<path class="st40" d="M200,195L200,195c2.8,0,5,2.2,5,5v10c0,2.8-2.2,5-5,5l0,0c-2.8,0-5-2.2-5-5v-10C195,197.2,197.2,195,200,195z
		"/>
	<circle class="st40" cx="200" cy="197.5" r="7.5"/>
</g>
</svg>
